<?xml version="1.0" encoding="UTF-8"?>
<svg version="1.1" xmlns="http://www.w3.org/2000/svg" width="1200" height="406">
<path d="M0 0 C5.66731884 5.02330533 8.7235274 12.12494632 11.83203125 18.921875 C12.20311508 19.72256912 12.57419891 20.52326324 12.95652771 21.34822083 C14.16414476 23.95875886 15.36356334 26.57296534 16.5625 29.1875 C17.41029389 31.02604693 18.25827842 32.86450597 19.10644531 34.70288086 C24.8405958 47.15739386 30.44409645 59.66724324 35.97567749 72.21282959 C41.37229746 84.44918815 46.96231142 96.58415734 52.70410156 108.66235352 C63.75 131.93957974 63.75 131.93957974 63.75 134.4375 C53.89989755 134.93460797 46.10604965 134.13942789 38.53369141 127.44384766 C34.97101768 123.43644926 32.99098527 118.53862211 30.8125 113.6875 C30.31943359 112.63433594 29.82636719 111.58117187 29.31835938 110.49609375 C25.75 102.78527002 25.75 102.78527002 25.75 100.4375 C2.65 100.4375 -20.45 100.4375 -44.25 100.4375 C-45.24 103.4075 -46.23 106.3775 -47.25 109.4375 C-54.96954864 128.65934729 -54.96954864 128.65934729 -63.25 132.4375 C-63.94867187 132.7675 -64.64734375 133.0975 -65.3671875 133.4375 C-71.26164304 135.78689153 -76.98087391 135.7538858 -83.25 135.4375 C-81.79230075 130.75922891 -79.92969547 126.35210368 -77.86328125 121.91796875 C-77.5297464 121.19534348 -77.19621155 120.4727182 -76.85256958 119.72819519 C-76.13393324 118.17199129 -75.41389691 116.61643327 -74.69259644 115.0614624 C-72.75486208 110.88375088 -70.82756152 106.70122375 -68.8984375 102.51953125 C-68.50544968 101.66846802 -68.11246185 100.81740479 -67.70756531 99.94055176 C-64.00215888 91.91235466 -60.33915681 83.86525563 -56.6875 75.8125 C-52.8166037 67.27967561 -48.93951135 58.74983359 -45.0390625 50.23046875 C-44.68763687 49.46274139 -44.33621124 48.69501404 -43.97413635 47.90402222 C-42.57678985 44.85181274 -41.17925481 41.79969175 -39.77987671 38.74841309 C-35.12740683 28.60861859 -35.12740683 28.60861859 -30.60546875 18.41015625 C-30.05427368 17.14546509 -30.05427368 17.14546509 -29.49194336 15.85522461 C-28.86439185 14.40473576 -28.2432674 12.95143458 -27.63110352 11.49438477 C-25.06343342 5.5416683 -22.10967608 1.36733804 -16.25 -1.5625 C-10.62465997 -3.32479532 -5.25302513 -2.52549285 0 0 Z M-9.25 24.4375 C-14.59998655 34.96761798 -19.72653 45.58014464 -24.63452148 56.32348633 C-25.70551811 58.66438249 -26.78525452 61.00112757 -27.86523438 63.33789062 C-28.55521612 64.84350786 -29.24468911 66.34935837 -29.93359375 67.85546875 C-30.2533165 68.54505173 -30.57303925 69.2346347 -30.90245056 69.94511414 C-32.53035219 73.53174282 -33.46648517 76.51992583 -34.25 80.4375 C-17.42 80.4375 -0.59 80.4375 16.75 80.4375 C11.02919832 67.08896275 5.25990404 53.80994254 -0.8125 40.625 C-1.54255791 39.03461545 -2.27237601 37.44412079 -3.00195312 35.85351562 C-4.74856776 32.04691473 -6.49832433 28.24177445 -8.25 24.4375 C-8.58 24.4375 -8.91 24.4375 -9.25 24.4375 Z " fill="#D02030" transform="translate(924.25,108.5625)"/>
<path d="M0 0 C3.75420496 2.0613771 7.10346898 4.50036284 10.34765625 7.2890625 C14.29997923 5.39921611 17.92461437 3.07478071 21.6171875 0.7265625 C30.83483698 -4.12622006 42.86848144 -4.31995652 52.87109375 -1.8359375 C62.91289224 2.08785009 71.62153422 8.39284939 76.34765625 18.2890625 C79.80195199 26.76469675 79.73961557 35.14560243 79.640625 44.140625 C79.6350179 45.6509051 79.63075308 47.16119072 79.62776184 48.67147827 C79.6164006 52.61378498 79.58701061 56.55575109 79.5536499 60.4979248 C79.52275899 64.53372594 79.50921619 68.56958303 79.49414062 72.60546875 C79.4621308 80.50015492 79.41104258 88.39456614 79.34765625 96.2890625 C77.92619435 96.17746403 76.5057848 96.05241925 75.0859375 95.921875 C74.29485596 95.85371582 73.50377441 95.78555664 72.6887207 95.71533203 C68.08860112 94.87772552 64.7976043 92.25905271 62.0625 88.54296875 C59.2215161 83.80799559 58.22831991 79.88526312 58.20581055 74.44799805 C58.19525887 73.01081673 58.19525887 73.01081673 58.18449402 71.54460144 C58.18032974 70.51539078 58.17616547 69.48618011 58.171875 68.42578125 C58.1486769 66.23762059 58.12455957 64.04946951 58.09960938 61.86132812 C58.0645091 58.41831029 58.03515268 54.97564566 58.02172852 51.5324707 C58.00622217 48.2048082 57.96599636 44.87817152 57.921875 41.55078125 C57.92378342 40.52764328 57.92569183 39.50450531 57.92765808 38.45036316 C57.82102115 32.19362437 57.01153671 28.40958837 53.34765625 23.2890625 C49.44693791 19.74295492 44.54896858 18.3787403 39.34765625 18.2890625 C33.32080654 19.46325908 29.32252302 21.47104217 25.34765625 26.2890625 C22.9585326 29.87274797 23.07677491 31.51902149 23.02880859 35.7800293 C23.01876297 36.4339566 23.00871735 37.08788391 22.99836731 37.7616272 C22.96750611 39.92050304 22.95049244 42.07925471 22.93359375 44.23828125 C22.91488442 45.736161 22.89531118 47.23403018 22.87490845 48.73188782 C22.82355624 52.6724322 22.7839472 56.61301077 22.74676514 60.55371094 C22.70674476 64.57560707 22.65564347 68.59736063 22.60546875 72.61914062 C22.50867294 80.50901723 22.42427999 88.39896433 22.34765625 96.2890625 C20.91462518 96.16587012 19.48247981 96.03234869 18.05078125 95.89453125 C17.25317383 95.82129639 16.45556641 95.74806152 15.63378906 95.67260742 C9.52241736 94.64730147 5.84611443 89.98699206 2.34765625 85.2890625 C1.37831004 82.38102386 1.21808967 80.51157256 1.20581055 77.4855957 C1.19877609 76.51060623 1.19174164 75.53561676 1.18449402 74.53108215 C1.18032974 73.47797348 1.17616547 72.42486481 1.171875 71.33984375 C1.14867019 69.10741251 1.12455259 66.87499061 1.09960938 64.64257812 C1.06454901 61.12501843 1.0351801 57.60780076 1.02172852 54.09008789 C1.0062005 50.69375148 0.96595173 47.29841433 0.921875 43.90234375 C0.92378342 42.85935623 0.92569183 41.81636871 0.92765808 40.74177551 C0.80095358 33.12956283 -0.61570781 27.58598152 -5.83984375 21.9140625 C-10.850804 19.01884102 -16.0197114 17.69343537 -21.77734375 18.7890625 C-26.18432206 20.15522578 -29.70475396 22.75992121 -32.65234375 26.2890625 C-34.25496963 29.72065302 -34.90200302 32.4358053 -34.90771484 36.21191406 C-34.91815323 37.63929901 -34.91815323 37.63929901 -34.92880249 39.09552002 C-34.92780548 40.11329529 -34.92680847 41.13107056 -34.92578125 42.1796875 C-34.94607568 44.35547384 -34.96692657 46.53125505 -34.98828125 48.70703125 C-35.0108371 52.12130062 -35.0273374 55.53536668 -35.03320312 58.94970703 C-35.04277105 62.25590377 -35.07660508 65.56119538 -35.11328125 68.8671875 C-35.10823578 69.87686584 -35.10319031 70.88654419 -35.09799194 71.92681885 C-35.20001026 79.34324853 -36.5905532 85.66998673 -41.4765625 91.4453125 C-42.09144531 91.88875 -42.70632813 92.3321875 -43.33984375 92.7890625 C-44.24283203 93.48515625 -44.24283203 93.48515625 -45.1640625 94.1953125 C-47.69782639 95.30905487 -49.57305499 95.58570861 -52.30786133 95.85742188 C-53.5271508 95.98183655 -53.5271508 95.98183655 -54.77107239 96.10876465 C-55.39189194 96.16826294 -56.01271149 96.22776123 -56.65234375 96.2890625 C-56.72215148 87.72608593 -56.77531005 79.16323019 -56.80778027 70.60003853 C-56.82337194 66.6229045 -56.84448979 62.64596654 -56.87866211 58.66894531 C-56.91148958 54.823954 -56.92924551 50.97915014 -56.93697548 47.13402939 C-56.94247736 45.67415292 -56.9532201 44.21428558 -56.96953392 42.7544899 C-57.12276654 28.46192002 -54.81744168 17.81261033 -45.02734375 7.1015625 C-33.60241645 -3.95341477 -14.39852603 -6.18669279 0 0 Z " fill="#D02030" transform="translate(506.65234375,147.7109375)"/>
<path d="M0 0 C8.25270753 6.59558141 17.90840522 15.46663551 19.9375 26.34765625 C14.469225 29.89464544 9.25602058 30.28640788 2.9375 29.34765625 C-1.91175895 27.46377148 -5.35603017 24.08077928 -9.0625 20.53515625 C-13.07725695 16.85554423 -17.29154742 14.39440344 -22.125 11.97265625 C-22.78564453 11.63903076 -23.44628906 11.30540527 -24.12695312 10.96166992 C-37.90069375 4.32222186 -52.89177136 4.15601949 -67.453125 8.31640625 C-79.7842675 12.64107234 -91.10880128 20.50176568 -97.59375 32.08203125 C-103.71896022 44.97346207 -104.89053838 56.71677204 -100.0625 70.34765625 C-95.27922585 82.5494343 -86.06523392 91.76101142 -74.18408203 97.20898438 C-58.08482166 103.81593206 -42.39368664 104.29294217 -26.0625 98.34765625 C-20.50620608 95.85642119 -15.59828236 92.8494168 -10.8125 89.09765625 C-4.99370612 84.60988203 0.40233982 83.90409064 7.55859375 84.7890625 C11.05035976 85.60896815 13.17495248 87.09399906 15.9375 89.34765625 C13.77550704 94.10404076 10.43465117 97.52669479 6.9375 101.34765625 C6.43476563 101.93933594 5.93203125 102.53101563 5.4140625 103.140625 C-5.35070786 115.08023071 -24.03530036 122.2737124 -39.74560547 123.56884766 C-62.9771394 124.54636072 -83.78417825 120.31299539 -101.671875 104.62109375 C-114.13584495 92.76810271 -123.68030118 77.54412893 -124.265625 59.90625 C-124.57494317 40.11761976 -119.90734492 23.03255662 -106.58984375 7.87109375 C-78.10804161 -20.56668705 -32.43558265 -23.80994364 0 0 Z " fill="#D02030" transform="translate(319.0625,120.65234375)"/>
<path d="M0 0 C10.21022944 9.51458743 15.39517285 22.99551996 15.99609375 36.7265625 C15.65434009 49.91255795 11.02798052 61.77067834 2 71.43359375 C-11.7279185 83.93443574 -27.04834455 87.05523739 -45.09765625 86.34375 C-51.85333058 85.7182246 -57.18913574 84.18717077 -62.09765625 79.34375 C-67.30675858 73.06611386 -66.72172593 66.23158155 -66.09765625 58.34375 C-65.76765625 57.68375 -65.43765625 57.02375 -65.09765625 56.34375 C-63.1298634 57.31893938 -61.17258538 58.30345198 -59.23828125 59.34375 C-49.44646548 64.52289222 -38.92001595 66.16634011 -27.99609375 63.62109375 C-19.6312115 60.77519029 -13.53031569 57.15845389 -9.09765625 49.38671875 C-5.49297077 42.02245895 -5.19672548 35.54783884 -7.72265625 27.84375 C-11.27334428 18.89356741 -16.0583274 14.55154624 -24.8203125 10.51171875 C-35.08312608 6.85429174 -45.59222269 7.87580937 -55.4140625 12.4140625 C-62.35321608 16.39057935 -67.09832917 21.78241901 -69.50201416 29.42282104 C-70.67820836 35.19068024 -70.48354814 41.07723041 -70.44721603 46.94049263 C-70.43333921 49.39263576 -70.43999477 51.84398216 -70.45205688 54.29612732 C-70.4828318 61.26119504 -70.47814186 68.2260688 -70.45800781 75.19116211 C-70.44705514 79.46818008 -70.46034796 83.74459407 -70.48790359 88.02152824 C-70.4933186 89.64211595 -70.48934589 91.26276504 -70.47550583 92.88330269 C-70.33712219 109.26793328 -70.33712219 109.26793328 -76.09765625 115.34375 C-81.15031388 120.14377474 -85.23046757 121.45710112 -92.09765625 121.34375 C-92.14413905 109.92958654 -92.17960618 98.51544586 -92.20128059 87.10120678 C-92.21168685 81.80026578 -92.22578802 76.49938988 -92.24853516 71.19848633 C-92.27037659 66.07618386 -92.28224859 60.95394375 -92.28741074 55.83159828 C-92.29108629 53.88412814 -92.29826337 51.93666113 -92.30911636 49.98921776 C-92.40970669 31.17952325 -91.23772322 15.89749034 -77.51171875 1.59765625 C-55.84741615 -18.62937061 -22.88901028 -18.07251463 0 0 Z " fill="#D02030" transform="translate(687.09765625,157.65625)"/>
<path d="M0 0 C9.85181681 7.75009589 16.41395472 20.30481049 18.0078125 32.6328125 C19.07847351 46.18079217 15.48760771 58.7554144 6.81640625 69.296875 C-4.42255228 81.23939595 -18.44686139 87.51289286 -34.79956055 88.05273438 C-52.2062229 88.18475583 -67.04963624 83.22854325 -79.8359375 71.0234375 C-90.12734394 59.61339993 -92.65099185 46.53017321 -92.12841797 31.67089844 C-91.30570656 19.36266398 -83.71649279 8.81523547 -74.9921875 0.6328125 C-52.82966987 -16.54641714 -22.62669537 -15.52812427 0 0 Z M-63.12890625 18.55859375 C-69.54116112 25.48167814 -71.65768365 31.93918137 -71.3984375 41.34765625 C-70.40518125 49.37966113 -66.4064031 55.16382119 -60.1796875 60.1640625 C-50.09880518 66.93265491 -38.90584981 68.03710109 -27.06640625 66.171875 C-18.23144535 63.83603775 -11.10747126 58.15435123 -5.9921875 50.6328125 C-2.57973689 44.34875251 -1.90170155 38.04276511 -3.61328125 31.12109375 C-6.52378629 22.67416133 -11.93318526 17.07821944 -19.6796875 12.7578125 C-34.33712382 6.13615291 -50.99533383 7.62285115 -63.12890625 18.55859375 Z " fill="#D02030" transform="translate(427.9921875,156.3671875)"/>
<path d="M0 0 C47.52 0 95.04 0 144 0 C144 7.36534422 143.31017796 9.57980361 139 15 C124.22675038 29.03458714 99.94463311 21 82 21 C82 59.61 82 98.22 82 138 C70.69512195 136.74390244 70.69512195 136.74390244 66 132 C60.70411803 125.09442746 60.8531372 117.6198462 60.88647461 109.32275391 C60.88632858 108.36602783 60.88618256 107.40930176 60.8860321 106.42358398 C60.88672643 103.27455342 60.89449631 100.12558268 60.90234375 96.9765625 C60.90420964 94.78795402 60.90563273 92.59934513 60.90663147 90.41073608 C60.91044321 84.6601241 60.92026202 78.90953752 60.93133545 73.15893555 C60.94157846 67.28695011 60.94613528 61.41496055 60.95117188 55.54296875 C60.9618855 44.0286347 60.97894578 32.51431946 61 21 C60.44147339 21.00888245 59.88294678 21.01776489 59.30749512 21.0269165 C53.46714567 21.11576624 47.62698983 21.17588945 41.78613281 21.21972656 C39.60962112 21.23977764 37.43316286 21.26702571 35.25683594 21.30175781 C32.11900607 21.35056212 28.98189165 21.37303438 25.84375 21.390625 C24.87884644 21.41127014 23.91394287 21.43191528 22.9197998 21.45318604 C15.75279357 21.45553875 10.3807393 19.98300527 4.94140625 15.18359375 C4.48636719 14.60738281 4.03132812 14.03117187 3.5625 13.4375 C3.08941406 12.85871094 2.61632812 12.27992187 2.12890625 11.68359375 C-0.56769107 7.66202473 0 5.14965811 0 0 Z " fill="#D02030" transform="translate(667,106)"/>
<path d="M0 0 C1.58670022 0.26391439 3.17089291 0.54292827 4.75390625 0.828125 C5.6363501 0.9818457 6.51879395 1.13556641 7.42797852 1.29394531 C12.55894108 2.70246394 15.69368289 6.0370917 18.570755 10.36026001 C20.63234492 15.61034049 20.39357393 20.47262691 20.34057617 26.06396484 C20.34123329 27.87944321 20.34123329 27.87944321 20.34190369 29.7315979 C20.34017613 33.03714488 20.32516796 36.34212447 20.30418181 39.64757109 C20.28538271 43.106878 20.28366204 46.5661931 20.28010559 50.02554321 C20.27079458 56.5702866 20.24619371 63.11487902 20.21605712 69.65955603 C20.18248361 77.1129782 20.16601971 84.56640772 20.15097082 92.01988673 C20.11964321 107.34667848 20.06690124 122.67331974 20 138 C12.58933994 137.23075368 8.2030204 135.73599383 3.1875 129.875 C0.35208751 126.14845787 -0.12485024 124.60054032 -0.12025452 120.01400757 C-0.12162918 118.95948898 -0.12300385 117.9049704 -0.12442017 116.8184967 C-0.12082489 115.65684494 -0.11722961 114.49519318 -0.11352539 113.29833984 C-0.11367142 112.07885147 -0.11381744 110.8593631 -0.1139679 109.60292053 C-0.11338955 106.25394819 -0.10836546 102.90503707 -0.10139394 99.55607557 C-0.09515348 96.0580256 -0.09455605 92.55997485 -0.09336853 89.06192017 C-0.09025726 82.43565139 -0.08204662 75.80939906 -0.07201904 69.18313754 C-0.06085157 61.64031071 -0.05534585 54.0974831 -0.05032361 46.55465007 C-0.03986384 31.03642384 -0.02226834 15.51821404 0 0 Z " fill="#D02030" transform="translate(817,106)"/>
<path d="M0 0 C3.68121997 1.76455172 5.66052696 4.06145689 7.0625 7.9375 C6.98250464 11.8572725 6.27714677 13.79776236 4 17 C0.23330089 19.24553216 -2.23901235 20 -6.625 20 C-10.81285235 18.75915486 -12.48750545 17.57840133 -15 14 C-15.64643474 11.19311232 -15.62988925 8.80896558 -15 6 C-11.06577911 -0.16361273 -6.99989224 -1.03354114 0 0 Z M-11 6 C-12.29633621 7.06645115 -12.29633621 7.06645115 -12.0625 9.5625 C-12.041875 10.366875 -12.02125 11.17125 -12 12 C-11.01 12.495 -11.01 12.495 -10 13 C-10 10.69 -10 8.38 -10 6 C-10.33 6 -10.66 6 -11 6 Z M-7 7 C-6.67 7.66 -6.34 8.32 -6 9 C-4.68 8.34 -3.36 7.68 -2 7 C-3.65 7 -5.3 7 -7 7 Z M2 7 C1.34 8.65 0.68 10.3 0 12 C0.99 12.33 1.98 12.66 3 13 C3 11.02 3 9.04 3 7 C2.67 7 2.34 7 2 7 Z M-7 12 C-7.33 13.32 -7.66 14.64 -8 16 C-5.69 16 -3.38 16 -1 16 C-1.66 15.67 -2.32 15.34 -3 15 C-3.33 14.01 -3.66 13.02 -4 12 C-4.99 12 -5.98 12 -7 12 Z " fill="#D02030" transform="translate(999,217)"/>
</svg>
