<svg version="1.1" id="Layer_1" xmlns="http://www.w3.org/2000/svg" xmlns:xlink="http://www.w3.org/1999/xlink" x="0px" y="0px"
	 width="100%" viewBox="0 0 225 225" enable-background="new 0 0 225 225" xml:space="preserve">
<path fill="#B4F7E5" opacity="1.000000" stroke="none" 
	d="
M2.000000,226.000000 
	C1.666667,224.502029 1.042680,223.004227 1.041708,221.506042 
	C0.994072,148.087280 1.000000,74.668488 1.000000,1.000000 
	C3.577831,1.000000 6.159650,1.000000 8.741469,1.000000 
	C79.663025,1.000000 150.584579,0.993861 221.506104,1.041728 
	C223.004288,1.042739 224.502045,1.666668 225.808701,2.487679 
	C225.617401,2.975356 225.235367,2.943305 225.146683,2.959092 
	C225.057999,2.974880 224.889206,3.037883 224.813782,2.785327 
	C224.311798,2.655587 223.885254,2.778402 223.049713,2.730159 
	C220.643677,2.514043 218.646667,2.429796 216.649643,2.429597 
	C148.339203,2.422778 80.028763,2.423921 11.718318,2.423919 
	C8.623291,2.423919 5.528264,2.423919 1.976846,2.423919 
	C1.976846,4.842741 1.976842,6.980405 1.976847,9.118069 
	C1.976996,76.095627 1.974064,143.073181 1.983953,210.050735 
	C1.984642,214.713608 2.080479,219.376465 2.093496,224.241791 
	C2.054922,224.444244 2.062172,224.856384 2.045726,225.142242 
	C2.019520,225.618729 2.009760,225.809372 2.000000,226.000000 
z"/>
<path fill="#B1F8E3" opacity="1.000000" stroke="none" 
	d="
M2.468657,226.000000 
	C2.009760,225.809372 2.019520,225.618729 2.269896,225.184418 
	C2.510512,224.940750 2.963568,224.886169 3.432654,224.930420 
	C59.310570,224.989853 114.719406,225.016769 170.128235,225.013458 
	C188.097107,225.012375 206.065964,224.932114 224.265930,224.921143 
	C224.497040,224.954224 224.960892,224.900772 224.971436,225.175537 
	C224.987976,225.633545 224.993988,225.816772 225.000000,226.000000 
	C150.979111,226.000000 76.958206,226.000000 2.468657,226.000000 
z"/>
<path fill="#B5F9E2" opacity="1.000000" stroke="none" 
	d="
M225.500000,226.000000 
	C224.993988,225.816772 224.987976,225.633545 224.979752,224.957047 
	C224.977539,224.463776 224.890869,224.034760 224.935577,223.565796 
	C224.993988,152.204514 225.005508,81.312180 225.030304,10.419844 
	C225.031174,7.927640 225.164032,5.435483 225.235367,2.943305 
	C225.235367,2.943305 225.617401,2.975356 225.808701,2.987678 
	C226.000000,77.333336 226.000000,151.666672 225.500000,226.000000 
z"/>
<path fill="#3EFFC0" opacity="1.000000" stroke="none" 
	d="
M225.146683,2.959092 
	C225.164032,5.435483 225.031174,7.927640 225.030304,10.419844 
	C225.005508,81.312180 224.993988,152.204514 224.759369,223.671295 
	C224.317978,224.418625 224.150116,224.632721 224.034836,224.888062 
	C206.065964,224.932114 188.097107,225.012375 170.128235,225.013458 
	C114.719406,225.016769 59.310570,224.989853 3.330290,224.756744 
	C2.590859,224.320953 2.381935,224.154465 2.132070,224.039337 
	C2.080479,219.376465 1.984642,214.713608 1.983953,210.050735 
	C1.974064,143.073181 1.976996,76.095627 1.976847,9.118069 
	C1.976842,6.980405 1.976846,4.842741 1.976846,2.423919 
	C5.528264,2.423919 8.623291,2.423919 11.718318,2.423919 
	C80.028763,2.423921 148.339203,2.422778 216.649643,2.429597 
	C218.646667,2.429796 220.643677,2.514043 223.408386,2.756584 
	C224.413788,2.982006 224.651489,3.009944 224.889206,3.037883 
	C224.889206,3.037883 225.057999,2.974880 225.146683,2.959092 
M75.000046,126.948608 
	C75.000046,126.948608 75.054077,126.949471 75.144157,127.388550 
	C75.238991,127.679756 75.400688,127.927284 75.653526,129.050095 
	C75.624565,143.734940 75.595596,158.419800 75.281502,173.370468 
	C75.520424,173.676422 75.759354,173.982376 76.521263,174.234665 
	C76.686913,174.177475 76.852562,174.120285 77.943214,174.216309 
	C106.618019,174.159531 135.292816,174.102753 163.881348,174.185928 
	C163.881348,174.185928 163.926834,174.343903 164.337662,174.662140 
	C164.861664,174.399170 165.385681,174.136200 165.968414,173.251587 
	C165.922577,172.839462 165.876740,172.427353 165.960480,171.084503 
	C165.916306,164.707581 165.872116,158.330643 165.946823,151.551834 
	C165.946823,151.551834 165.958450,151.132904 165.762253,150.671509 
	C165.527542,150.437820 165.292831,150.204147 164.398697,149.453140 
	C162.591049,149.301697 160.783691,149.022522 158.975723,149.018600 
	C141.335861,148.980331 123.695885,148.988068 105.995216,148.340912 
	C105.758278,147.538513 105.521339,146.736130 105.234009,145.012314 
	C105.250206,140.361908 105.266411,135.711502 105.662163,130.478882 
	C105.844643,129.096725 106.027122,127.714561 107.112999,126.220161 
	C117.414398,126.125702 127.715797,126.031235 138.514313,125.911964 
	C138.845108,125.704414 138.953018,125.414032 138.970901,124.106873 
	C138.984390,118.351204 138.826828,112.588234 139.072220,106.842476 
	C139.232605,103.087723 138.060928,101.152924 133.348358,101.221992 
	C123.960068,101.097473 114.571777,100.972946 105.058769,99.938004 
	C105.100304,92.625725 105.141846,85.313446 106.095764,78.000488 
	C124.219452,78.000229 142.343384,78.037521 160.466278,77.917038 
	C161.703568,77.908813 162.932968,76.717445 164.049713,75.136032 
	C164.000977,68.082870 163.952240,61.029713 163.913483,53.412342 
	C163.602905,53.256336 163.292343,53.100330 162.057404,52.786682 
	C133.710724,52.840496 105.364052,52.894310 76.401802,52.998184 
	C76.232597,53.345314 76.063400,53.692444 75.729073,54.960377 
	C75.691254,69.928642 75.653442,84.896912 75.324730,100.197304 
	C75.167778,100.452888 75.072289,100.729683 75.005417,101.007607 
	C75.005417,101.007607 75.022690,101.042160 74.082634,101.018570 
	C63.418400,101.016266 52.754169,101.013962 41.505531,101.612961 
	C41.338322,105.050613 40.953114,108.494858 41.056976,111.924301 
	C41.199039,116.615112 41.712929,121.294662 42.530090,126.043510 
	C42.530090,126.043510 42.986244,125.942856 43.912548,126.111626 
	C53.930782,126.169533 63.949020,126.227440 74.246933,126.607765 
	C74.464302,126.801277 74.714272,126.932869 75.000046,126.948608 
z"/>
<path fill="#36FEBE" opacity="1.000000" stroke="none" 
	d="
M224.813782,2.785327 
	C224.651489,3.009944 224.413788,2.982006 223.817383,2.927642 
	C223.885254,2.778402 224.311798,2.655587 224.813782,2.785327 
z"/>
<path fill="#36FEBE" opacity="1.000000" stroke="none" 
	d="
M2.093496,224.241791 
	C2.381935,224.154465 2.590859,224.320953 2.861204,224.712494 
	C2.963568,224.886169 2.510512,224.940750 2.286342,224.898560 
	C2.062172,224.856384 2.054922,224.444244 2.093496,224.241791 
z"/>
<path fill="#36FEBE" opacity="1.000000" stroke="none" 
	d="
M224.265930,224.921143 
	C224.150116,224.632721 224.317978,224.418625 224.714661,224.140259 
	C224.890869,224.034760 224.977539,224.463776 224.969208,224.682281 
	C224.960892,224.900772 224.497040,224.954224 224.265930,224.921143 
z"/>
<path fill="#045C68" opacity="1.000000" stroke="none" 
	d="
M138.017197,125.936768 
	C127.715797,126.031235 117.414398,126.125702 106.310471,126.403702 
	C105.432831,128.078522 105.357719,129.569809 105.282608,131.061096 
	C105.266411,135.711502 105.250206,140.361908 105.159782,145.860016 
	C105.059578,147.771118 105.033600,148.834534 105.307663,150.191589 
	C106.901978,150.656784 108.196114,150.976624 109.490501,150.977600 
	C128.027283,150.991592 146.564117,150.962585 165.075150,150.950165 
	C165.049362,150.956390 165.078171,150.909683 165.156891,151.114487 
	C165.372070,151.587708 165.569504,151.799194 165.827927,151.953720 
	C165.872116,158.330643 165.916306,164.707581 165.597794,171.615845 
	C164.812607,172.780121 164.390121,173.413055 163.967621,174.045975 
	C135.292816,174.102753 106.618019,174.159531 77.369125,173.927795 
	C76.615578,173.368088 76.385323,173.150681 75.966400,173.000565 
	C75.828514,173.014069 75.566635,173.104645 75.566635,173.104645 
	C75.595596,158.419800 75.624565,143.734940 75.688171,128.345779 
	C75.623222,127.291672 75.400307,127.061005 75.054077,126.949471 
	C75.054077,126.949471 75.000046,126.948608 74.914207,126.748871 
	C74.609833,126.237564 74.322792,126.149643 73.967255,126.285355 
	C63.949020,126.227440 53.930782,126.169533 43.354294,125.847710 
	C42.641117,125.354500 42.442116,125.173721 42.134422,124.574295 
	C42.087971,116.778160 42.106140,109.449181 42.582787,102.070389 
	C51.151619,102.001991 59.263126,102.054230 67.371674,101.923302 
	C69.926094,101.882050 72.472572,101.349731 75.022690,101.042160 
	C75.022690,101.042160 75.005417,101.007607 75.237778,100.896881 
	C75.736389,100.513588 75.784889,100.206596 75.615623,99.865181 
	C75.653442,84.896912 75.691254,69.928642 76.042580,54.366325 
	C76.576515,53.497555 76.796944,53.222839 77.017380,52.948128 
	C105.364052,52.894310 133.710724,52.840496 162.629364,53.074184 
	C163.379700,53.630226 163.613770,53.835182 163.903519,53.976555 
	C163.952240,61.029713 164.000977,68.082870 164.023468,75.584686 
	C163.997238,76.033340 163.845718,75.947403 163.387482,75.961670 
	C145.894135,75.984055 128.858917,75.966476 111.824059,76.035950 
	C109.901344,76.043785 107.980637,76.542740 105.817490,76.937759 
	C105.445114,77.374763 105.314247,77.687965 105.183380,78.001167 
	C105.141846,85.313446 105.100304,92.625725 105.373459,100.717087 
	C115.155113,101.525642 124.622070,101.555115 134.089035,101.584587 
	C138.060928,101.152924 139.232605,103.087723 139.072220,106.842476 
	C138.826828,112.588234 138.984390,118.351204 138.732056,124.687653 
	C138.281860,125.453690 138.123199,125.676476 138.017197,125.936768 
z"/>
<path fill="#47F4C7" opacity="1.000000" stroke="none" 
	d="
M105.639572,78.000824 
	C105.314247,77.687965 105.445114,77.374763 106.277458,77.007759 
	C124.620552,76.968674 142.262222,77.005814 159.903625,76.952652 
	C161.218643,76.948692 162.531738,76.297638 163.845718,75.947403 
	C163.845718,75.947403 163.997238,76.033340 164.081635,76.054825 
	C162.932968,76.717445 161.703568,77.908813 160.466278,77.917038 
	C142.343384,78.037521 124.219452,78.000229 105.639572,78.000824 
z"/>
<path fill="#47F4C7" opacity="1.000000" stroke="none" 
	d="
M106.055939,148.982697 
	C123.695885,148.988068 141.335861,148.980331 158.975723,149.018600 
	C160.783691,149.022522 162.591049,149.301697 164.692596,149.738266 
	C164.986496,150.023392 164.919586,150.082321 164.457382,150.051254 
	C144.685043,149.968704 125.374916,149.917236 106.050552,149.645111 
	C106.036316,149.424469 106.055939,148.982697 106.055939,148.982697 
z"/>
<path fill="#2DB59A" opacity="1.000000" stroke="none" 
	d="
M74.552658,101.030365 
	C72.472572,101.349731 69.926094,101.882050 67.371674,101.923302 
	C59.263126,102.054230 51.151619,102.001991 42.557747,101.793701 
	C42.079468,101.381775 42.084702,101.196709 42.089935,101.011650 
	C52.754169,101.013962 63.418400,101.016266 74.552658,101.030365 
z"/>
<path fill="#2DB59A" opacity="1.000000" stroke="none" 
	d="
M133.718689,101.403290 
	C124.622070,101.555115 115.155113,101.525642 105.435822,101.172302 
	C114.571777,100.972946 123.960068,101.097473 133.718689,101.403290 
z"/>
<path fill="#47F4C7" opacity="1.000000" stroke="none" 
	d="
M41.797733,101.312302 
	C42.084702,101.196709 42.079468,101.381775 42.099274,101.843529 
	C42.106140,109.449181 42.087971,116.778160 42.077408,124.805313 
	C42.085014,125.503487 42.067440,125.979034 42.067444,125.979034 
	C41.712929,121.294662 41.199039,116.615112 41.056976,111.924301 
	C40.953114,108.494858 41.338322,105.050613 41.797733,101.312302 
z"/>
<path fill="#33BEA0" opacity="1.000000" stroke="none" 
	d="
M105.472382,130.769989 
	C105.357719,129.569809 105.432831,128.078522 105.858765,126.459824 
	C106.027122,127.714561 105.844643,129.096725 105.472382,130.769989 
z"/>
<path fill="#005360" opacity="1.000000" stroke="none" 
	d="
M163.924484,174.115952 
	C164.390121,173.413055 164.812607,172.780121 165.532990,172.081207 
	C165.876740,172.427353 165.922577,172.839462 165.603653,173.623108 
	C164.801544,174.111053 164.364182,174.227478 163.926834,174.343903 
	C163.926834,174.343903 163.881348,174.185928 163.924484,174.115952 
z"/>
<path fill="#33BEA0" opacity="1.000000" stroke="none" 
	d="
M106.025574,148.661804 
	C106.055939,148.982697 106.036316,149.424469 105.787262,149.687256 
	C105.361343,149.932663 105.184479,149.915298 105.007614,149.897934 
	C105.033600,148.834534 105.059578,147.771118 105.184982,146.320724 
	C105.521339,146.736130 105.758278,147.538513 106.025574,148.661804 
z"/>
<path fill="#33BEA0" opacity="1.000000" stroke="none" 
	d="
M164.132248,174.503021 
	C164.364182,174.227478 164.801544,174.111053 165.574280,173.933945 
	C165.385681,174.136200 164.861664,174.399170 164.132248,174.503021 
z"/>
<path fill="#33BEA0" opacity="1.000000" stroke="none" 
	d="
M75.998276,174.288330 
	C75.759354,173.982376 75.520424,173.676422 75.424072,173.237549 
	C75.566635,173.104645 75.828514,173.014069 75.934044,173.325409 
	C76.025803,173.853943 76.012039,174.071136 75.998276,174.288330 
z"/>
<path fill="#005360" opacity="1.000000" stroke="none" 
	d="
M76.259766,174.261505 
	C76.012039,174.071136 76.025803,173.853943 76.071930,173.311905 
	C76.385323,173.150681 76.615578,173.368088 76.906631,173.851166 
	C76.852562,174.120285 76.686913,174.177475 76.259766,174.261505 
z"/>
<path fill="#005360" opacity="1.000000" stroke="none" 
	d="
M76.709595,52.973152 
	C76.796944,53.222839 76.576515,53.497555 76.125145,53.905922 
	C76.063400,53.692444 76.232597,53.345314 76.709595,52.973152 
z"/>
<path fill="#005659" opacity="1.000000" stroke="none" 
	d="
M165.887375,151.752777 
	C165.569504,151.799194 165.372070,151.587708 165.376953,151.170258 
	C165.518295,151.021240 165.958450,151.132904 165.958450,151.132904 
	C165.958450,151.132904 165.946823,151.551834 165.887375,151.752777 
z"/>
<path fill="#47F4C7" opacity="1.000000" stroke="none" 
	d="
M165.860352,150.902206 
	C165.958450,151.132904 165.518295,151.021240 165.298233,150.965454 
	C165.078171,150.909683 165.049362,150.956390 165.026596,150.735474 
	C165.003830,150.514542 164.919586,150.082321 164.919586,150.082321 
	C164.919586,150.082321 164.986496,150.023392 165.022308,149.996918 
	C165.292831,150.204147 165.527542,150.437820 165.860352,150.902206 
z"/>
<path fill="#2DB59A" opacity="1.000000" stroke="none" 
	d="
M75.099121,127.169006 
	C75.400307,127.061005 75.623222,127.291672 75.676025,127.886307 
	C75.400688,127.927284 75.238991,127.679756 75.099121,127.169006 
z"/>
<path fill="#37D2B0" opacity="1.000000" stroke="none" 
	d="
M74.107094,126.446556 
	C74.322792,126.149643 74.609833,126.237564 74.912605,126.775833 
	C74.714272,126.932869 74.464302,126.801277 74.107094,126.446556 
z"/>
<path fill="#005360" opacity="1.000000" stroke="none" 
	d="
M138.265747,125.924370 
	C138.123199,125.676476 138.281860,125.453690 138.665619,125.154617 
	C138.953018,125.414032 138.845108,125.704414 138.265747,125.924370 
z"/>
<path fill="#005360" opacity="1.000000" stroke="none" 
	d="
M42.298767,126.011276 
	C42.067440,125.979034 42.085014,125.503487 42.142029,125.272476 
	C42.442116,125.173721 42.641117,125.354500 42.891144,125.763321 
	C42.986244,125.942856 42.530090,126.043510 42.298767,126.011276 
z"/>
<path fill="#2DB59A" opacity="1.000000" stroke="none" 
	d="
M75.470177,100.031242 
	C75.784889,100.206596 75.736389,100.513588 75.254196,100.906921 
	C75.072289,100.729683 75.167778,100.452888 75.470177,100.031242 
z"/>
<path fill="#005360" opacity="1.000000" stroke="none" 
	d="
M163.908508,53.694450 
	C163.613770,53.835182 163.379700,53.630226 163.091537,53.153004 
	C163.292343,53.100330 163.602905,53.256336 163.908508,53.694450 
z"/>
<path fill="#005659" opacity="1.000000" stroke="none" 
	d="
M164.457382,150.051254 
	C164.919586,150.082321 165.003830,150.514542 165.052383,150.729233 
	C146.564117,150.962585 128.027283,150.991592 109.490501,150.977600 
	C108.196114,150.976624 106.901978,150.656784 105.307663,150.191589 
	C105.184479,149.915298 105.361343,149.932663 105.801498,149.907898 
	C125.374916,149.917236 144.685043,149.968704 164.457382,150.051254 
z"/>
<path fill="#005659" opacity="1.000000" stroke="none" 
	d="
M163.387482,75.961670 
	C162.531738,76.297638 161.218643,76.948692 159.903625,76.952652 
	C142.262222,77.005814 124.620552,76.968674 106.518967,76.883957 
	C107.980637,76.542740 109.901344,76.043785 111.824059,76.035950 
	C128.858917,75.966476 145.894135,75.984055 163.387482,75.961670 
z"/>
</svg>