<svg id="Layer_1" data-name="Layer 1" xmlns="http://www.w3.org/2000/svg" width="2.61in" height="2.28in" viewBox="0 0 187.67 164.14">
  <defs>
    <style>
      .cls-1 {
        fill: #fff;
      }

      .cls-2 {
        fill: #5e0009;
      }

      .cls-3 {
        fill: #231f20;
      }
    </style>
  </defs>
  <title>bearhead-cmyk-Basic</title>
  <g>
    <g>
      <path class="cls-1" d="M172.54,51.62l.2-.24c3.4-1,5.55-4.56,6.4-7.54.56-2,.64-6.12-3.09-22l-.16-.66-.45-.5c-1.06-1.16-10.62-11.4-18-13.13l-.51-.12c-4.94-1.16-8.52-2-12.73.55a44.71,44.71,0,0,0-8.37,6.5c-1-.68-2-2.1-3.07-3-2.83-2.39-5.69-4.3-9.37-4.6h.08l-3.76-.44c-6.83-.81-13.89-1.66-20.7-.8L93.83,9,88.66,5.65c-6.8-.86-13.86,0-20.7.8l-3.75.44h.07c-3.68.3-6.53,2.21-9.36,4.6-1.05.89-2.1,2.31-3.07,3A44.77,44.77,0,0,0,43.47,8c-4.21-2.55-7.78-1.71-12.72-.55l-.51.12c-7.39,1.73-16.95,12-18,13.13l-.45.5-.16.66c-3.72,15.88-3.65,20-3.09,22,.85,3,3,6.52,6.41,7.54l.19.24c-2.67,2.77-8,8.62-8.41,9.27s.33,1,.69,1.16,3.71,1.38,4,1.49C9.86,75.94,8.65,98.61,8.81,99.4s.91.85,1.53.8a21.77,21.77,0,0,0,3.8-1.85c5.3,13.21,19.72,40,20.41,40.75a1.33,1.33,0,0,0,1.49.07c.51-.39,2.18-2,2.58-2.42.14-.13.39-.39.66-.7,7.26,2,19.37,6.34,31.64,9.46l4.86,4.39.74.66H87.64l6.19,6.52,6.2-6.52h11.12l.73-.66,4.87-4.39c12.26-3.12,24.38-7.45,31.62-9.46l.67.7c.4.41,2.08,2,2.59,2.42a1.33,1.33,0,0,0,1.49-.07c.69-.74,15.1-27.54,20.4-40.75a22.29,22.29,0,0,0,3.81,1.85c.61,0,1.37-.06,1.52-.8s-1-23.46-2.56-35.86c.27-.11,3.64-1.34,4-1.49s1-.53.68-1.16S175.21,54.39,172.54,51.62Zm-62.39,96.13H100.08l-6.25,4.73-6.24-4.73H77.51c-3-6.49-9.27-22.43-9.27-22.43L45.79,118S31.24,87.9,30.67,84.21C29.34,75.67,30,68.3,33.14,61.77c5.44-11.44,21.21-24.26,25-24.7,7.83-.11,31,13.42,31,13.42s-2.26,4.59-2.52,5.27L67.2,48.51c-4.53.52-13.34,1.06-13.34,1.06s-11,15.71-12.29,18.13a.31.31,0,0,0,.19.48L50.19,58c5-4.51,7.62-6,10.68-6.71,2-.48,6.89-.83,10.44,1.22a11.93,11.93,0,0,0-6.57,2.87v.73a11.75,11.75,0,0,0,6.12,2C66.66,60.35,53.48,71,52.25,73.4a.31.31,0,0,0,.18.48s1.38.19,1.72.28C54.2,78,57,88.76,60,95.43c2.52,1,5.57,1.77,8.31,2.71,1.76,4.48,12,38.53,13.22,40.93,5,.59,9,.94,9,.94l3.35,3.08L97.18,140s4-.35,9-.94c1.2-2.4,11.46-36.45,13.22-40.93,2.75-.94,5.8-1.69,8.31-2.71,2.93-6.67,5.78-17.43,5.83-21.27.34-.09,1.71-.28,1.71-.28a.31.31,0,0,0,.19-.48C134.19,71,121,60.35,116.82,58.09a11.7,11.7,0,0,0,6.11-2v-.73a11.92,11.92,0,0,0-6.56-2.87c3.54-2,8.48-1.7,10.44-1.22,3,.76,5.67,2.2,10.68,6.71l8.43,10.18a.31.31,0,0,0,.18-.48c-1.22-2.42-12.28-18.13-12.28-18.13S125,49,120.47,48.51L101,55.76c-.26-.68-2.53-5.27-2.53-5.27s23.16-13.53,31-13.42c3.83.44,19.6,13.26,25,24.7,3.1,6.53,3.79,13.9,2.46,22.44C156.42,87.9,141.87,118,141.87,118l-22.44,7.33S113.12,141.26,110.15,147.75Zm-3.1-62c2.23-3.56,3.78-5.68,5.11-9.54l-10-18C109.49,57,117.43,61,121,63.63a30.3,30.3,0,0,1,8.37,9c.36,6.37-2,20.3-2,20.3S115.62,96.48,113,97.07a216.88,216.88,0,0,1-8.14,40H82.79a215.17,215.17,0,0,1-8.14-40c-2.6-.59-14.35-4.17-14.35-4.17S58,79,58.31,72.6a30.46,30.46,0,0,1,8.38-9C70.24,61,78.18,57,85.52,58.24l-10,18c1.33,3.86,2.89,6,5.12,9.54.5-.17.36-.27,1.16-.57a37.9,37.9,0,0,1-3-9A10.19,10.19,0,0,1,78.53,75a1.62,1.62,0,0,1,.53-1.2c4.17-3.94,9.41-7.18,14.77-7.18s10.6,3.24,14.77,7.18a1.58,1.58,0,0,1,.53,1.2,11.71,11.71,0,0,1-.25,1.18,38.83,38.83,0,0,1-3,9C106.69,85.5,106.54,85.6,107.05,85.77Zm69.06-25.23s-2.24.73-2.94.88c1.78,13.13,2.9,30.05,2.4,34.39a.5.5,0,0,1-.69.48s-2.27-1.05-2.89-1.37c-4.56,12.42-16.8,36-19.27,39.55a.5.5,0,0,1-.82.1s-1.57-1.79-2-2.37a344.71,344.71,0,0,1-34.44,10.73l6.94-16.74,19.27-5c5.45-7.64,16.73-29.67,18.53-33.61a13.84,13.84,0,0,0,2.53.59.36.36,0,0,0,.47-.3c-.63-9.42-3.67-18.22-6.34-29.8.37-.08,3.12-.34,3.12-.34s.45-.16.18-.49c-5.61-6.83-23.31-20.29-33.36-25-1.55.22-33,15.74-33,15.74s-31.45-15.52-33-15.74c-10,4.67-27.74,18.13-33.35,25-.27.33.17.49.17.49s2.76.26,3.12.34c-2.67,11.58-5.71,20.38-6.33,29.8a.35.35,0,0,0,.46.3,13.84,13.84,0,0,0,2.53-.59c1.8,3.94,13.09,26,18.55,33.61l19.26,5,6.93,16.74A343.14,343.14,0,0,1,37.75,132.2c-.41.58-2,2.37-2,2.37a.5.5,0,0,1-.82-.1c-2.46-3.6-14.7-27.13-19.26-39.55-.62.32-2.9,1.37-2.9,1.37a.5.5,0,0,1-.68-.48c-.5-4.34.61-21.26,2.39-34.39-.68-.15-2.94-.88-2.94-.88a.5.5,0,0,1-.22-.8C13.75,56.1,26.4,42.8,39.17,34.46c.09-3.48-1-14.14-2.51-15-8.37,4-15,12.28-15,12.28a14,14,0,0,0,1.34,5l3.48-2.25a2.49,2.49,0,0,1-1.32-3.42,11.08,11.08,0,0,1,4.41-4.53c3.33-1.6,3.85-1.6,6-1.3-3.73,2.71-3.37,8-3.08,8.28s3.23-1.28,3.23-1.28.26,2,.23,2C31.4,37,16.34,48.82,16.34,48.82c-3.18-.39-4.86-4.26-5.34-5.93-.86-3,1.48-13.75,3.12-20.71C18.37,17.54,25.78,11,30.83,9.82s7.88-1.95,11.31.13a43.84,43.84,0,0,1,5.57,4c1.42,1.18,3.73,4.62,4.52,5.67,0,0,4-5.68,6.35-7.5,1.87-1.49,3.81-2.71,5.92-2.88,7.72-.86,16-2.52,23.72-1.54l3.48,3.2c.82,11,1.85,24.39,1.85,24.39h.57s1-13.4,1.86-24.39l3.47-3.2c7.73-1,16,.68,23.72,1.54,2.1.17,4,1.39,5.92,2.88,2.31,1.82,6.34,7.5,6.34,7.5.79-1.05,3.11-4.49,4.53-5.67a44.36,44.36,0,0,1,5.55-4c3.45-2.08,6.29-1.32,11.33-.13s12.46,7.72,16.71,12.36c1.63,7,4,17.71,3.11,20.71-.48,1.67-2.15,5.54-5.33,5.93,0,0-15.06-11.78-19.57-14.62,0,0,.22-2,.22-2s3,1.57,3.24,1.28.64-5.57-3.08-8.28c2.1-.3,2.62-.3,5.94,1.3a11,11,0,0,1,4.41,4.53,2.48,2.48,0,0,1-1.31,3.42l3.47,2.25a14,14,0,0,0,1.34-5s-6.61-8.31-15-12.28c-1.52.86-2.61,11.52-2.52,15,12.77,8.34,25.43,21.64,27.85,25.28A.5.5,0,0,1,176.11,60.54Z"/>
      <path class="cls-1" d="M82.62,99.28a54.85,54.85,0,0,0,3.28,10.11c0,.13.36.12.4,0,.45-1.78,1-8.84,1.06-9.44h.23l2.32,3.51.31-.14,1.53-3.61h.3L93.63,103H94l1.58-3.27h.3l1.55,3.61.28.14,2.33-3.51h.23c.06.6.6,7.66,1,9.44,0,.15.38.16.41,0a55.62,55.62,0,0,0,3.28-10.11,21.48,21.48,0,0,0-22.43,0Z"/>
      <path class="cls-1" d="M97.29,128.05,95.94,125l-.12,0-2,2.7-2-2.7-.11,0-1.36,3.05a25.28,25.28,0,0,0-4.13-4.7l-.14,0c.53,3.11,1.54,7.32,1.54,7.32a22.66,22.66,0,0,1,6.19-1,22.87,22.87,0,0,1,6.2,1s1-4.21,1.54-7.32l-.15,0A25.28,25.28,0,0,0,97.29,128.05Z"/>
      <path class="cls-2" d="M119.43,125.32s-6.31,15.94-9.28,22.43H100.08l-6.25,4.73-6.24-4.73H77.51c-3-6.49-9.27-22.43-9.27-22.43L45.79,118S31.24,87.9,30.67,84.21C29.34,75.67,30,68.3,33.14,61.77c5.44-11.44,21.21-24.26,25-24.7,7.83-.11,31,13.42,31,13.42s-2.26,4.59-2.52,5.27L67.2,48.51c-4.53.52-13.34,1.06-13.34,1.06s-11,15.71-12.29,18.13a.31.31,0,0,0,.19.48L50.19,58c5-4.51,7.62-6,10.68-6.71,2-.48,6.89-.83,10.44,1.22a11.93,11.93,0,0,0-6.57,2.87v.73a11.75,11.75,0,0,0,6.12,2C66.66,60.35,53.48,71,52.25,73.4a.31.31,0,0,0,.18.48s1.38.19,1.72.28C54.2,78,57,88.76,60,95.43c2.52,1,5.57,1.77,8.31,2.71,1.76,4.48,12,38.53,13.22,40.93,5,.59,9,.94,9,.94l3.35,3.08L97.18,140s4-.35,9-.94c1.2-2.4,11.46-36.45,13.22-40.93,2.75-.94,5.8-1.69,8.31-2.71,2.93-6.67,5.78-17.43,5.83-21.27.34-.09,1.71-.28,1.71-.28a.31.31,0,0,0,.19-.48C134.19,71,121,60.35,116.82,58.09a11.7,11.7,0,0,0,6.11-2v-.73a11.92,11.92,0,0,0-6.56-2.87c3.54-2,8.48-1.7,10.44-1.22,3,.76,5.67,2.2,10.68,6.71l8.43,10.18a.31.31,0,0,0,.18-.48c-1.22-2.42-12.28-18.13-12.28-18.13S125,49,120.47,48.51L101,55.76c-.26-.68-2.53-5.27-2.53-5.27s23.16-13.53,31-13.42c3.83.44,19.6,13.26,25,24.7,3.1,6.53,3.79,13.9,2.46,22.44C156.42,87.9,141.87,118,141.87,118ZM108.88,76.18a38.83,38.83,0,0,1-3,9c.8.3.65.4,1.16.57,2.23-3.56,3.78-5.68,5.11-9.54l-10-18C109.49,57,117.43,61,121,63.63a30.3,30.3,0,0,1,8.37,9c.36,6.37-2,20.3-2,20.3S115.62,96.48,113,97.07a216.88,216.88,0,0,1-8.14,40H82.79a215.17,215.17,0,0,1-8.14-40c-2.6-.59-14.35-4.17-14.35-4.17S58,79,58.31,72.6a30.46,30.46,0,0,1,8.38-9C70.24,61,78.18,57,85.52,58.24l-10,18c1.33,3.86,2.89,6,5.12,9.54.5-.17.36-.27,1.16-.57a37.9,37.9,0,0,1-3-9A10.19,10.19,0,0,1,78.53,75a1.62,1.62,0,0,1,.53-1.2c4.17-3.94,9.41-7.18,14.77-7.18s10.6,3.24,14.77,7.18a1.58,1.58,0,0,1,.53,1.2A11.71,11.71,0,0,1,108.88,76.18Zm-8.77,2.9a10.7,10.7,0,0,1-1.51,4.23l2.93.51a14.5,14.5,0,0,0,1.92-4.66A5.27,5.27,0,0,0,98.92,77C99,77,100.11,79,100.11,79.08Zm-15.9.08a14.67,14.67,0,0,0,1.93,4.66l2.92-.51a10.66,10.66,0,0,1-1.49-4.23c0-.06,1.14-2,1.16-2.11A5.29,5.29,0,0,0,84.21,79.16Zm17.36,44.21-.15,0a25.28,25.28,0,0,0-4.13,4.7L95.94,125l-.12,0-2,2.7-2-2.7-.11,0-1.36,3.05a25.28,25.28,0,0,0-4.13-4.7l-.14,0c.53,3.11,1.54,7.32,1.54,7.32a22.66,22.66,0,0,1,6.19-1,22.87,22.87,0,0,1,6.2,1S101,126.48,101.57,123.37Zm3.48-24.09a21.48,21.48,0,0,0-22.43,0,54.85,54.85,0,0,0,3.28,10.11c0,.13.36.12.4,0,.45-1.78,1-8.84,1.06-9.44h.23l2.32,3.51.31-.14,1.53-3.61h.3L93.63,103H94l1.58-3.27h.3l1.55,3.61.28.14,2.33-3.51h.23c.06.6.6,7.66,1,9.44,0,.15.38.16.41,0A55.62,55.62,0,0,0,105.05,99.28Zm43.44-64.82c-.09-3.48,1-14.14,2.52-15,8.37,4,15,12.28,15,12.28a14,14,0,0,1-1.34,5l-3.47-2.25a2.48,2.48,0,0,0,1.31-3.42,11,11,0,0,0-4.41-4.53c-3.32-1.6-3.84-1.6-5.94-1.3,3.72,2.71,3.36,8,3.08,8.28S152,32.22,152,32.22s-.26,2-.22,2c4.51,2.84,19.57,14.62,19.57,14.62,3.18-.39,4.85-4.26,5.33-5.93.86-3-1.48-13.75-3.11-20.71C169.3,17.54,161.89,11,156.84,9.82S149,7.87,145.51,10a44.36,44.36,0,0,0-5.55,4c-1.42,1.18-3.74,4.62-4.53,5.67,0,0-4-5.68-6.34-7.5-1.89-1.49-3.82-2.71-5.92-2.88-7.74-.86-16-2.52-23.72-1.54L96,10.88c-.82,11-1.86,24.39-1.86,24.39h-.57s-1-13.4-1.85-24.39l-3.48-3.2c-7.73-1-16,.68-23.72,1.54-2.11.17-4,1.39-5.92,2.88-2.31,1.82-6.35,7.5-6.35,7.5-.79-1.05-3.1-4.49-4.52-5.67a43.84,43.84,0,0,0-5.57-4c-3.43-2.08-6.27-1.32-11.31-.13S18.37,17.54,14.12,22.18c-1.64,7-4,17.71-3.12,20.71.48,1.67,2.16,5.54,5.34,5.93,0,0,15.06-11.78,19.57-14.62,0,0-.23-2-.23-2s-3,1.57-3.23,1.28-.65-5.57,3.08-8.28c-2.1-.3-2.62-.3-6,1.3a11.08,11.08,0,0,0-4.41,4.53,2.49,2.49,0,0,0,1.32,3.42L23,36.72a14,14,0,0,1-1.34-5s6.62-8.31,15-12.28c1.51.86,2.6,11.52,2.51,15C26.4,42.8,13.75,56.1,11.33,59.74a.5.5,0,0,0,.22.8s2.26.73,2.94.88C12.71,74.55,11.6,91.47,12.1,95.81a.5.5,0,0,0,.68.48s2.28-1.05,2.9-1.37c4.56,12.42,16.8,36,19.26,39.55a.5.5,0,0,0,.82.1s1.58-1.79,2-2.37a343.14,343.14,0,0,0,34.42,10.73l-6.93-16.74-19.26-5c-5.46-7.64-16.75-29.67-18.55-33.61a13.84,13.84,0,0,1-2.53.59.35.35,0,0,1-.46-.3c.62-9.42,3.66-18.22,6.33-29.8-.36-.08-3.12-.34-3.12-.34s-.44-.16-.17-.49c5.61-6.83,23.31-20.29,33.35-25,1.55.22,33,15.74,33,15.74s31.45-15.52,33-15.74c10,4.67,27.75,18.13,33.36,25,.27.33-.18.49-.18.49s-2.75.26-3.12.34c2.67,11.58,5.71,20.38,6.34,29.8a.36.36,0,0,1-.47.3,13.84,13.84,0,0,1-2.53-.59c-1.8,3.94-13.08,26-18.53,33.61l-19.27,5-6.94,16.74a344.71,344.71,0,0,0,34.44-10.73c.4.58,2,2.37,2,2.37a.5.5,0,0,0,.82-.1c2.47-3.6,14.71-27.13,19.27-39.55.62.32,2.89,1.37,2.89,1.37a.5.5,0,0,0,.69-.48c.5-4.34-.62-21.26-2.4-34.39.7-.15,2.94-.88,2.94-.88a.5.5,0,0,0,.23-.8C173.92,56.1,161.26,42.8,148.49,34.46Z"/>
      <path class="cls-1" d="M89.06,83.31a10.66,10.66,0,0,1-1.49-4.23c0-.06,1.14-2,1.16-2.11a5.29,5.29,0,0,0-4.52,2.19,14.67,14.67,0,0,0,1.93,4.66Z"/>
      <path class="cls-1" d="M101.53,83.82a14.5,14.5,0,0,0,1.92-4.66A5.27,5.27,0,0,0,98.92,77c0,.06,1.19,2,1.19,2.11a10.7,10.7,0,0,1-1.51,4.23Z"/>
      <path class="cls-3" d="M185.74,59.74c-.24-.36-.47-.68-.63-1a16.71,16.71,0,0,0-2-2.12c-1.08-1.07-2.4-2.37-3.58-3.74a21.62,21.62,0,0,0,4.68-7.63c.77-2.69,1.17-6.81-3-24.67l-.47-2-1.39-1.52c-2.7-2.94-12.17-12.71-20.71-14.71l-.5-.11C152.68,1,147.52-.21,141.46,3.45A27.36,27.36,0,0,0,136,8.56c-2.34-2.47-6.45-6-11.26-6.81v0s-.69-.08-.69-.08l-3.75-.45c-7.15-.85-14.53-1.74-22-.79L97,.58l-.16,0-.12.08S95,1.78,93.83,2.38C92.72,1.78,91,.69,90.92.68L90.8.6l-.14,0L89.33.41c-7.45-.95-14.84-.06-22,.79l-3.75.45-.7.07v0C58.1,2.52,54,6.09,51.65,8.56A27.13,27.13,0,0,0,46.2,3.45C40.14-.21,35,1,29.54,2.29L29,2.4C20.5,4.4,11,14.17,8.32,17.11L6.93,18.63l-.46,2c-4.19,17.86-3.79,22-3,24.66a21.42,21.42,0,0,0,4.68,7.64C7,54.3,5.63,55.6,4.54,56.67a15.6,15.6,0,0,0-2,2.12c-.16.27-.4.59-.64,1C.89,61.18-.39,63,.11,64.4s2.38,1.94,4.05,2.44a12,12,0,0,1,1.6.53,6.79,6.79,0,0,0,.84.21C4.77,79.5,3.39,98.43,3.39,100.28c0,.26,0,.56,0,.89-.09,1.68-.24,4.5,2.44,5.11,1.54.35,3.58-.21,6.37-1.74,5.79,13.29,15.18,33.42,17,36.38s4.16,4.56,6.49,4.23c1.54-.21,4.36-3.37,5.29-4.45.9.31,2.74,1,5,1.84,6.41,2.37,17.1,6.34,22.4,7.75l6.16,5.56H84.87l9,8.29,9-8.29h10.38l.19-.18,6-5.38c5.3-1.41,16-5.38,22.4-7.75,2.26-.84,4.11-1.53,5-1.84.93,1.08,3.76,4.24,5.3,4.45,2.32.33,4.63-1.18,6.49-4.23s11.18-23.09,17-36.38c2.77,1.53,4.82,2.09,6.35,1.74,2.69-.61,2.53-3.43,2.44-5.11,0-.33,0-.63,0-.89,0-1.85-1.38-20.78-3.2-32.7a5.76,5.76,0,0,0,.83-.21,12.16,12.16,0,0,1,1.61-.53c1.67-.5,3.56-1,4-2.44S186.78,61.18,185.74,59.74Zm-5.47,2.31c-.34.15-3.71,1.38-4,1.49,1.51,12.4,2.72,35.07,2.56,35.86s-.91.85-1.52.8a22.29,22.29,0,0,1-3.81-1.85c-5.3,13.21-19.71,40-20.4,40.75a1.33,1.33,0,0,1-1.49.07c-.51-.39-2.19-2-2.59-2.42l-.67-.7c-7.24,2-19.36,6.34-31.62,9.46l-4.87,4.39-.73.66H100l-6.2,6.52-6.19-6.52H76.52l-.74-.66-4.86-4.39c-12.27-3.12-24.38-7.45-31.64-9.46-.27.31-.52.57-.66.7-.4.41-2.07,2-2.58,2.42a1.33,1.33,0,0,1-1.49-.07c-.69-.74-15.11-27.54-20.41-40.75a21.77,21.77,0,0,1-3.8,1.85c-.62,0-1.37-.06-1.53-.8s1-23.46,2.57-35.86c-.27-.11-3.65-1.34-4-1.49s-1-.53-.69-1.16,5.74-6.5,8.41-9.27l-.19-.24c-3.41-1-5.56-4.56-6.41-7.54-.56-2-.63-6.12,3.09-22l.16-.66.45-.5c1.07-1.16,10.63-11.4,18-13.13l.51-.12c4.94-1.16,8.51-2,12.72.55a44.77,44.77,0,0,1,8.38,6.5c1-.68,2-2.1,3.07-3,2.83-2.39,5.68-4.3,9.36-4.6h-.07L68,6.45c6.84-.81,13.9-1.66,20.7-.8L93.83,9,99,5.65c6.81-.86,13.87,0,20.7.8l3.76.44h-.08c3.68.3,6.54,2.21,9.37,4.6,1,.89,2.1,2.31,3.07,3A44.71,44.71,0,0,1,144.19,8c4.21-2.55,7.79-1.71,12.73-.55l.51.12c7.39,1.73,16.95,12,18,13.13l.45.5.16.66c3.73,15.88,3.65,20,3.09,22-.85,3-3,6.52-6.4,7.54l-.2.24c2.67,2.77,8.06,8.62,8.41,9.27S180.63,61.9,180.27,62.05Z"/>
    </g>
    <path class="cls-3" d="M134,149a2.85,2.85,0,1,1,0,5.69,2.85,2.85,0,1,1,0-5.69Zm0,.57a2.27,2.27,0,0,0,0,4.53,2.16,2.16,0,0,0,2.16-2.27,2.18,2.18,0,0,0-2.18-2.26Zm-.44,3.73h-.65v-2.82a5.69,5.69,0,0,1,1.09-.1,1.59,1.59,0,0,1,1,.23.75.75,0,0,1,.28.6.74.74,0,0,1-.59.68v0c.28.09.43.31.52.69a1.78,1.78,0,0,0,.21.69h-.71a2.14,2.14,0,0,1-.23-.67c0-.31-.22-.45-.58-.45h-.32Zm0-1.59h.31c.37,0,.66-.12.66-.41s-.19-.44-.6-.44a1.39,1.39,0,0,0-.37,0Z"/>
  </g>
</svg>
